<!--
  url: https://formito.com/tools/favicon
  font: Bubblegum Sans
  Size: 83
-->
<svg xmlns="http://www.w3.org/2000/svg" width="256" height="256" viewBox="0 0 100 100"><rect width="100" height="100" rx="50" fill="#464646"></rect><path fill="#fff" d="M21.28 23.11Q23.56 23.11 24.98 24.60Q26.39 26.10 26.39 28.50Q26.39 30.91 24.52 32.61Q22.65 34.31 20.37 34.31Q18.09 34.31 16.72 32.86Q15.35 31.41 15.35 29.00Q15.35 26.59 17.17 24.85Q19.00 23.11 21.28 23.11ZM25.56 39.54L25.47 43.77L25.31 57.22Q25.31 63.69 25.68 66.72Q26.05 69.75 27.80 72.41L27.80 72.41Q27.80 73.24 24.39 75.07Q20.99 76.89 18.58 76.89L18.58 76.89Q17.84 76.89 17.09 74.40Q16.34 71.91 16.14 69.67Q15.93 67.43 15.93 54.56Q15.93 41.70 16.51 40.54L16.51 40.54Q18.42 39.04 23.23 39.04L23.23 39.04Q25.14 39.04 25.56 39.54L25.56 39.54ZM43.65 52.82L43.65 53.98L43.73 57.05L43.73 63.36Q43.73 72.24 43.40 72.58L43.40 72.58Q42.32 73.65 39.67 74.24Q37.01 74.82 35.31 74.82Q33.61 74.82 33.61 74.57L33.61 74.57Q34.19 70.83 34.19 62.28L34.19 62.28L33.94 43.61Q33.94 38.46 34.35 38.05L34.35 38.05Q35.27 37.13 37.51 36.43Q39.75 35.72 41.70 35.72Q43.65 35.72 43.65 36.14L43.65 36.14Q43.40 38.13 43.40 40.12Q43.40 42.11 43.65 42.11L43.65 42.11L43.90 41.95Q44.31 41.37 45.14 40.50Q45.97 39.62 48.67 38.17Q51.37 36.72 53.82 36.72Q56.27 36.72 57.97 37.59Q59.67 38.46 60.75 39.71Q61.83 40.95 62.62 43.28Q63.40 45.60 63.82 47.59Q64.23 49.58 64.48 52.90L64.48 52.90Q64.73 57.47 64.73 64.52L64.73 64.52L64.48 74.24Q64.48 74.82 61.74 75.36Q59.01 75.90 57.35 75.90L57.35 75.90L54.61 75.48Q55.44 68.01 55.44 61.00Q55.44 53.98 54.52 50.46Q53.61 46.93 50.87 46.93Q48.13 46.93 46.43 48.42Q44.73 49.92 44.23 51.41L44.23 51.41L43.65 52.82ZM78.14 23.11Q80.42 23.11 81.83 24.60Q83.24 26.10 83.24 28.50Q83.24 30.91 81.37 32.61Q79.51 34.31 77.22 34.31Q74.94 34.31 73.57 32.86Q72.20 31.41 72.20 29.00Q72.20 26.59 74.03 24.85Q75.85 23.11 78.14 23.11ZM82.41 39.54L82.33 43.77L82.16 57.22Q82.16 63.69 82.54 66.72Q82.91 69.75 84.65 72.41L84.65 72.41Q84.65 73.24 81.25 75.07Q77.85 76.89 75.44 76.89L75.44 76.89Q74.69 76.89 73.95 74.40Q73.20 71.91 72.99 69.67Q72.78 67.43 72.78 54.56Q72.78 41.70 73.36 40.54L73.36 40.54Q75.27 39.04 80.09 39.04L80.09 39.04Q82.00 39.04 82.41 39.54L82.41 39.54Z"></path></svg>
